<?xml version="1.0" encoding="UTF-8"?>
<svg version="1.1" xmlns="http://www.w3.org/2000/svg" width="600" height="600">
<path d="M0,0 L11,0 L28,3 L38,6 L39,8 L44,10 L55,17 L66,27 L74,38 L81,52 L84,61 L86,73 L86,88 L85,102 L83,103 L78,116 L69,131 L67,131 L65,135 L63,139 L61,139 L59,145 L55,156 L54,162 L54,178 L52,178 L52,184 L48,188 L47,190 L34,195 L-26,194 L-34,191 L-41,185 L-43,175 L-44,160 L-46,151 L-53,137 L-64,123 L-71,109 L-75,96 L-76,78 L-74,62 L-71,51 L-63,37 L-62,34 L-57,29 L-51,22 L-41,14 L-26,6 L-15,2 Z M-4,13 L-20,17 L-33,24 L-41,30 L-41,32 L-45,34 L-53,44 L-55,49 L-60,59 L-63,71 L-63,88 L-59,105 L-51,120 L-41,133 L-35,145 L-32,156 L-30,177 L-26,181 L-16,181 L-15,153 L-14,150 L-11,148 L-12,143 L-30,97 L-32,93 L-28,92 L-23,104 L-18,117 L-14,127 L-8,143 L-4,144 L-1,143 L-1,121 L-5,119 L-5,114 L-3,111 L-9,97 L-17,96 L-18,95 L-18,90 L-14,87 L-15,83 L-12,84 L-9,91 L-2,90 L1,89 L9,89 L19,92 L22,83 L25,83 L24,87 L28,89 L28,95 L27,96 L19,97 L14,109 L15,114 L16,118 L13,121 L11,122 L11,143 L17,144 L21,136 L27,119 L32,108 L38,93 L42,92 L32,119 L21,146 L26,156 L27,161 L27,181 L36,181 L40,178 L42,155 L48,139 L54,129 L60,121 L66,112 L71,100 L73,91 L73,71 L71,61 L68,54 L62,42 L51,30 L42,23 L30,17 L15,13 Z M-15,91 L-15,93 L-11,92 Z M22,91 L22,93 L25,93 L25,91 Z M0,93 L-6,95 L-5,101 L0,112 L11,112 L14,104 L17,96 L11,93 Z M-3,155 L-4,156 L-4,181 L15,181 L15,161 L13,155 Z M-18,1 Z M28,1 Z M37,1 Z M-23,2 Z M31,2 Z M35,2 Z M40,2 Z M51,7 Z M-35,8 Z M-33,8 Z M54,8 Z M-37,9 Z M50,9 Z M47,10 Z M55,10 Z M-44,14 Z M1,14 Z M-54,15 Z M-48,15 Z M19,15 Z M20,16 Z M62,16 Z M-16,17 Z M60,17 Z M64,17 Z M19,18 Z M-53,19 Z M23,19 Z M-50,20 Z M21,20 Z M24,20 Z M29,20 Z M-19,21 Z M61,21 Z M-57,24 Z M66,25 Z M-57,26 Z M-62,29 Z M71,29 Z M-34,30 Z M50,32 Z M78,33 Z M72,34 Z M77,34 Z M-64,35 Z M-40,35 Z M-46,37 Z M-67,38 Z M-44,38 Z M53,38 Z M-67,40 Z M-48,41 Z M-71,47 Z M-76,57 Z M-57,58 Z M65,58 Z M-76,60 Z M-77,61 Z M-58,62 Z M65,62 Z M67,62 Z M86,62 Z M-79,63 Z M69,63 Z M86,64 Z M66,67 Z M69,68 Z M-79,80 Z M-9,81 Z M19,84 Z M-79,87 Z M-32,87 Z M-9,87 Z M0,87 Z M17,87 Z M45,87 Z M-27,88 Z M-7,88 Z M70,88 Z M-28,89 Z M-6,89 Z M37,89 Z M-58,90 Z M44,91 Z M86,91 L88,92 Z M-57,92 Z M46,93 Z M66,93 Z M69,93 Z M-35,94 Z M5,94 Z M33,94 Z M48,94 Z M-56,96 Z M-59,97 Z M26,98 L28,99 Z M-59,99 Z M-15,99 Z M66,99 Z M12,100 Z M-14,101 Z M-3,101 Z M-76,102 Z M-58,102 Z M68,102 Z M-1,103 Z M25,103 Z M31,104 Z M30,107 Z M83,107 Z M-73,108 Z M-31,108 Z M-77,109 Z M-31,110 Z M-6,111 Z M-16,113 Z M16,113 Z M60,113 Z M-28,115 Z M-71,116 Z M-27,116 Z M-30,117 Z M-26,117 Z M-16,117 Z M57,117 Z M-25,118 Z M-48,119 Z M-12,120 Z M20,121 Z M24,121 Z M-22,122 Z M17,122 Z M-67,123 Z M14,123 Z M31,123 Z M-40,124 Z M-66,125 Z M-41,125 Z M-6,125 Z M31,125 Z M-70,126 Z M-21,127 Z M-10,127 Z M18,127 Z M19,129 Z M50,130 Z M-11,131 Z M67,133 Z M44,135 Z M41,136 Z M-4,141 L-2,142 Z M42,141 Z M64,141 Z M-54,142 Z M-52,145 Z M-53,146 Z M-53,148 Z M62,148 Z M41,149 Z M-47,151 Z M30,153 Z M-20,155 Z M28,156 Z M-18,157 Z M-46,158 Z M-1,158 Z M55,158 L57,159 Z M-47,159 Z M-27,159 Z M-45,162 Z M-20,162 Z M11,163 Z M56,164 Z M10,165 Z M29,165 Z M11,166 Z M-27,170 Z M-24,172 Z M54,174 Z M-46,175 Z M35,175 Z M-27,176 Z M10,176 Z M29,176 Z M37,176 Z M-44,177 Z M-21,178 Z M12,178 Z M36,178 Z M34,179 Z M-46,180 Z M54,181 Z M-45,182 Z M48,189 Z M54,189 Z M-45,190 Z M48,195 Z M-24,196 Z M17,196 Z M-25,197 Z M35,196 L41,197 L44,200 L44,205 L42,208 L38,209 L14,211 L-20,213 L-29,213 L-33,210 L-33,204 L-30,201 L-26,200 L15,197 Z M-39,198 Z M-38,200 Z M-36,202 L-34,203 Z M41,209 Z M-37,210 Z M27,210 Z M29,210 Z M13,211 Z M21,211 L23,212 Z M2,212 Z M23,212 L41,212 L44,215 L43,222 L40,224 L21,226 L6,227 L-14,228 L-30,228 L-33,225 L-33,219 L-30,216 L-19,215 Z M-7,213 Z M43,213 Z M-35,214 Z M-29,214 Z M-37,215 Z M-39,216 Z M-38,218 Z M-39,221 Z M-37,221 Z M-38,222 Z M47,222 Z M-37,224 Z M2,227 Z M0,228 Z M33,226 L42,228 L44,231 L44,236 L40,239 L35,240 L20,241 L17,242 L5,242 L-28,244 L-33,241 L-34,239 L-32,233 L-29,231 L-19,230 L15,228 L30,227 Z M-33,229 Z M-36,233 Z M-37,235 Z M25,242 Z M-35,243 Z M-9,243 Z M-2,243 Z M27,243 Z M-38,244 Z M9,244 Z M-39,245 Z M-26,245 Z M16,245 Z M-32,246 Z M-11,246 Z M25,246 Z M9,247 Z M-15,249 L25,249 L24,255 L16,262 L10,264 L0,264 L-10,259 L-15,252 Z M-14,259 Z M21,259 Z M-12,262 Z M-5,263 Z M-4,264 Z M14,265 Z M-5,266 Z M-1,267 Z M6,267 Z M9,267 Z M13,267 Z M-3,268 Z M0,268 Z M11,268 Z M9,269 Z M13,270 Z " fill="#d69a6b" transform="translate(295,169)"/>
</svg>
